<?xml version="1.0" standalone="no"?>
<!DOCTYPE svg PUBLIC "-//W3C//DTD SVG 20010904//EN"
 "http://www.w3.org/TR/2001/REC-SVG-20010904/DTD/svg10.dtd">
<svg version="1.0" xmlns="http://www.w3.org/2000/svg"
 width="1000.000000pt" height="1000.000000pt" viewBox="0 0 1000.000000 1000.000000"
 preserveAspectRatio="xMidYMid meet">
<metadata>
Created by potrace 1.11, written by Peter Selinger 2001-2013
</metadata>
<g transform="translate(0.000000,1000.000000) scale(0.100000,-0.100000)"
fill="#000000" stroke="none">
<path d="M4705 9101 c-11 -4 -41 -8 -68 -7 -26 1 -47 -1 -47 -4 0 -3 -12 -5
-27 -5 -16 1 -33 -3 -40 -7 -6 -5 -14 -5 -17 1 -5 7 -15 7 -32 1 -13 -5 -28
-9 -32 -9 -4 1 -9 0 -12 -1 -3 -1 -18 -4 -35 -6 -16 -1 -43 -5 -60 -8 -16 -4
-46 -8 -65 -10 -19 -3 -35 -5 -35 -6 0 -2 -27 -8 -65 -14 -14 -3 -43 -9 -64
-15 -22 -5 -43 -8 -47 -5 -4 2 -11 -1 -14 -7 -4 -5 -13 -8 -20 -5 -7 2 -16 2
-19 -2 -4 -3 -13 -7 -21 -9 -27 -5 -50 -11 -52 -13 -2 -2 -7 -4 -13 -5 -5 -1
-11 -3 -12 -5 -2 -1 -12 -3 -22 -5 -11 -2 -31 -7 -45 -11 -14 -4 -32 -6 -38
-5 -7 1 -13 -3 -13 -10 0 -6 -7 -9 -15 -5 -8 3 -15 0 -15 -6 0 -6 -3 -9 -6 -5
-3 3 -29 -3 -56 -14 -27 -10 -54 -17 -59 -14 -5 4 -9 1 -9 -5 0 -6 -4 -8 -10
-5 -5 3 -10 1 -10 -4 0 -6 -3 -10 -7 -9 -9 1 -30 -6 -81 -29 -18 -8 -37 -11
-42 -8 -6 3 -10 2 -10 -4 0 -5 -17 -15 -37 -22 -21 -6 -49 -17 -63 -24 -37
-19 -179 -84 -188 -86 -6 -2 -30 -15 -129 -70 -17 -10 -34 -15 -37 -12 -3 4
-6 2 -6 -4 0 -5 -18 -18 -40 -28 -22 -10 -40 -21 -40 -24 0 -4 -12 -12 -27
-18 -40 -17 -87 -46 -96 -60 -4 -7 -13 -13 -19 -13 -6 0 -33 -16 -59 -35 -27
-19 -51 -35 -54 -35 -6 0 -12 -4 -67 -51 -21 -17 -38 -28 -38 -25 0 6 -37 -23
-72 -56 -10 -10 -21 -18 -26 -18 -4 0 -23 -15 -43 -33 -20 -17 -48 -41 -62
-52 -100 -80 -352 -324 -447 -434 -25 -29 -62 -71 -82 -94 -21 -23 -40 -50
-43 -59 -4 -10 -10 -18 -14 -18 -4 0 -23 -21 -41 -47 -19 -27 -39 -53 -46 -60
-6 -6 -25 -34 -43 -62 -18 -28 -37 -51 -42 -51 -5 0 -9 -6 -9 -14 0 -8 -7 -22
-16 -30 -8 -9 -13 -16 -9 -16 6 0 -5 -15 -37 -51 -10 -10 -19 -22 -19 -26 -4
-19 -23 -53 -30 -53 -4 0 -11 -10 -15 -22 -4 -13 -17 -36 -30 -53 -12 -16 -23
-33 -23 -38 0 -4 -16 -35 -36 -68 -19 -33 -33 -65 -30 -70 4 -5 2 -9 -2 -9 -7
0 -52 -78 -58 -100 -1 -3 -16 -36 -35 -75 -18 -38 -34 -75 -36 -80 -1 -6 -11
-31 -22 -55 -11 -25 -21 -49 -23 -55 -2 -5 -8 -21 -15 -34 -7 -14 -11 -28 -8
-33 3 -4 1 -8 -4 -8 -5 0 -9 -6 -9 -12 -1 -7 -10 -37 -22 -67 -11 -30 -18 -58
-15 -62 3 -5 0 -9 -5 -9 -6 0 -11 -9 -11 -19 0 -11 -4 -22 -10 -26 -5 -3 -7
-12 -3 -20 3 -8 0 -15 -5 -15 -6 0 -9 -9 -7 -20 2 -11 0 -22 -6 -25 -5 -4 -9
-16 -9 -29 0 -12 -3 -26 -7 -30 -4 -3 -9 -17 -11 -29 -5 -28 -7 -38 -15 -57
-4 -8 -8 -28 -11 -45 -2 -16 -5 -30 -6 -30 -2 0 -11 -40 -26 -115 -10 -53 -12
-65 -14 -65 -1 0 -3 -13 -5 -30 -3 -16 -7 -46 -10 -65 -12 -77 -16 -107 -18
-147 -1 -22 -5 -39 -8 -37 -3 1 -6 -14 -6 -34 -1 -59 -11 -140 -18 -151 -3 -6
0 -11 7 -11 9 0 9 -3 -2 -10 -13 -9 -13 -10 0 -10 10 0 11 -3 4 -8 -15 -10
-17 -477 -3 -505 8 -15 8 -18 -1 -12 -9 5 -10 1 -5 -15 4 -12 8 -43 9 -69 2
-27 6 -53 10 -59 4 -7 2 -12 -5 -12 -8 0 -9 -3 0 -13 6 -8 8 -17 4 -20 -3 -4
0 -13 7 -22 9 -11 9 -15 1 -15 -7 0 -9 -4 -6 -10 9 -15 15 -49 17 -107 1 -29
6 -53 9 -53 4 0 8 -12 8 -27 0 -16 2 -39 5 -53 10 -41 19 -94 20 -112 0 -10 3
-18 7 -18 4 0 7 -16 7 -36 0 -20 4 -39 9 -43 5 -3 8 -15 8 -26 0 -11 3 -27 7
-36 4 -9 10 -29 13 -45 3 -16 7 -34 9 -41 1 -7 5 -16 9 -19 4 -4 7 -17 7 -29
0 -12 3 -25 7 -29 4 -4 8 -13 8 -19 1 -16 26 -100 33 -112 4 -5 8 -18 9 -28 2
-10 11 -30 20 -44 12 -18 13 -24 4 -19 -9 6 -7 0 4 -17 9 -15 14 -31 10 -37
-3 -5 -1 -10 4 -10 6 0 11 -6 11 -14 0 -8 22 -64 49 -125 27 -61 46 -111 43
-111 -4 0 -2 -4 3 -8 6 -4 17 -20 24 -37 18 -37 17 -35 26 -62 4 -13 11 -23
16 -23 5 0 8 -3 7 -7 -1 -5 6 -24 16 -43 11 -19 33 -62 51 -95 17 -33 44 -79
58 -102 15 -24 27 -47 27 -53 0 -5 5 -10 10 -10 6 0 10 -7 10 -15 0 -8 5 -15
12 -15 6 0 9 -3 5 -6 -3 -3 3 -15 14 -27 10 -11 19 -27 19 -34 0 -7 4 -13 9
-13 5 0 11 -8 14 -17 6 -19 34 -66 54 -92 180 -229 213 -271 306 -376 67 -77
302 -310 358 -355 23 -19 57 -49 76 -67 18 -17 33 -29 33 -26 0 3 9 -4 20 -17
11 -13 20 -20 20 -16 0 4 10 -3 22 -14 13 -12 50 -42 83 -66 33 -25 68 -52 78
-60 9 -8 21 -14 25 -14 5 0 17 -8 28 -18 10 -10 35 -27 54 -38 19 -10 41 -25
48 -32 7 -6 17 -12 21 -12 4 0 17 -9 29 -20 12 -12 22 -18 22 -14 0 3 16 -6
35 -20 19 -15 35 -24 35 -21 0 4 7 -1 16 -9 8 -9 21 -16 29 -16 7 0 15 -4 17
-8 1 -4 32 -23 68 -41 36 -18 88 -45 115 -59 28 -15 52 -27 55 -27 3 0 37 -15
75 -34 39 -18 79 -36 90 -41 11 -4 43 -18 70 -30 28 -13 56 -23 63 -23 6 0 12
-5 12 -10 0 -6 3 -8 6 -4 3 3 26 -3 50 -13 24 -11 44 -17 44 -13 0 3 6 1 13
-4 6 -6 33 -16 60 -24 26 -7 47 -16 47 -19 0 -3 8 -6 18 -7 43 -3 62 -8 62
-15 0 -4 13 -8 28 -8 15 0 33 -5 40 -12 7 -7 12 -9 12 -5 0 4 15 1 33 -6 17
-8 38 -12 45 -10 6 3 12 1 12 -4 0 -4 12 -9 28 -9 15 -1 38 -5 52 -9 14 -4 34
-8 45 -10 11 -2 20 -4 20 -5 0 -4 95 -21 150 -27 28 -3 52 -8 55 -12 3 -3 19
-7 35 -7 56 -3 110 -10 120 -16 6 -3 21 -4 35 -3 14 1 35 -1 46 -6 13 -4 26
-3 33 4 8 8 11 8 11 -1 0 -6 12 -10 30 -7 16 2 32 -1 36 -6 4 -6 11 -6 20 2 8
6 14 7 14 2 0 -6 91 -11 236 -12 192 -2 234 0 228 11 -6 10 -5 11 7 1 14 -12
55 -11 67 1 2 3 13 1 23 -5 11 -5 19 -6 19 -2 0 5 21 9 48 10 64 3 119 10 132
18 5 3 10 2 10 -4 0 -6 10 -7 28 -1 15 5 45 11 67 14 22 3 54 7 70 10 17 3 44
7 60 9 17 2 35 6 40 9 6 3 18 4 28 3 9 -2 17 1 17 6 0 5 3 8 8 7 12 -3 116 14
127 20 6 4 16 7 24 9 7 1 36 7 65 14 28 7 54 12 59 11 4 -1 7 2 7 7 0 5 8 8
18 6 9 -1 22 2 29 7 7 5 17 7 23 3 5 -3 10 -2 10 3 0 5 15 12 33 16 17 3 37 7
42 9 11 4 29 11 60 23 26 9 47 15 63 16 6 1 12 5 12 10 0 4 3 7 8 6 8 -1 39 9
65 23 10 5 22 7 27 4 6 -4 10 -1 10 4 0 6 9 11 20 11 11 0 20 5 20 10 0 6 3 9
8 9 4 -1 23 4 42 12 19 7 38 12 43 11 4 -1 7 3 7 9 0 5 4 8 9 4 5 -3 12 -1 16
5 4 6 11 8 16 5 5 -4 9 -2 9 4 0 6 11 13 25 17 14 3 25 10 25 15 0 5 7 6 15 3
8 -4 15 -1 15 6 0 6 6 10 12 8 7 -3 21 4 32 13 10 10 23 16 28 13 4 -3 8 0 8
5 0 6 3 10 8 9 10 -3 96 43 104 56 4 6 8 7 8 2 0 -5 7 -3 15 4 8 7 15 9 15 4
0 -5 4 -4 8 2 4 5 25 21 47 33 22 13 56 34 75 46 67 42 85 52 93 53 5 0 17 10
26 21 10 12 21 21 25 21 10 0 179 118 216 151 10 9 24 21 33 25 16 10 102 80
129 107 10 9 18 15 18 13 0 -13 342 323 415 409 28 33 60 69 72 82 12 13 19
23 15 23 -4 0 5 11 21 24 15 13 27 27 27 31 0 4 10 16 22 26 11 11 17 19 13
19 -5 0 0 8 11 19 10 10 26 28 34 41 8 12 21 28 28 36 6 7 12 15 12 19 0 3 4
11 10 18 47 57 60 76 60 86 0 6 5 11 10 11 6 0 10 5 10 10 0 6 16 33 35 60 19
27 35 54 35 60 0 5 5 10 11 10 5 0 7 5 4 10 -3 6 -2 10 2 10 5 0 13 8 18 18 6
10 21 40 34 65 14 26 29 47 34 47 4 0 6 4 2 9 -3 5 0 16 7 23 23 24 39 59 33
68 -4 6 2 10 11 10 10 0 15 3 11 6 -3 4 14 46 38 94 24 48 41 90 38 94 -4 3
-1 6 5 6 7 0 12 5 12 11 0 6 6 25 14 42 42 93 74 176 69 181 -4 3 -2 6 4 6 9
0 28 54 24 73 0 4 3 7 9 7 6 0 9 3 8 8 -1 4 9 41 22 82 13 41 25 77 25 80 9
36 19 67 23 75 4 5 7 16 8 25 1 8 4 24 7 36 3 11 13 52 22 90 9 38 20 79 25
91 7 16 6 23 -1 23 -8 0 -8 5 1 15 6 8 9 19 5 25 -3 5 -2 10 4 10 5 0 8 9 6
20 -2 11 -1 20 3 20 4 0 8 8 8 18 0 9 5 40 9 67 5 28 9 65 9 83 1 17 4 32 7
32 3 0 5 10 4 23 -1 12 2 28 8 35 6 8 5 12 -4 12 -9 0 -10 3 -4 8 6 4 11 21
12 37 5 90 12 155 17 164 3 5 0 11 -6 14 -10 3 -10 7 -2 18 7 9 12 90 13 233
2 178 0 217 -11 210 -11 -6 -11 -5 0 8 11 13 11 21 2 39 -9 17 -9 20 0 14 9
-6 10 -1 4 16 -4 13 -8 50 -8 81 -1 32 -4 58 -7 58 -3 0 -4 14 -3 30 1 17 -2
30 -7 30 -6 0 -6 7 0 18 5 10 6 24 1 32 -4 8 -11 40 -14 70 -3 30 -8 69 -11
85 -12 69 -14 80 -16 83 -1 1 -2 10 -3 20 -1 9 -5 23 -9 30 -5 6 -6 12 -2 12
3 0 1 10 -6 21 -8 16 -8 20 1 14 9 -6 9 -3 1 13 -6 11 -11 32 -11 46 0 14 -4
26 -9 26 -5 0 -8 8 -6 18 1 9 -2 23 -8 30 -5 7 -7 15 -5 18 3 3 -1 26 -9 52
-8 26 -16 54 -18 62 -2 8 -11 36 -19 63 -8 26 -12 47 -9 47 3 0 0 6 -6 13 -6
8 -12 22 -14 33 -1 10 -5 24 -8 29 -3 6 -12 30 -19 55 -7 25 -17 49 -22 54 -4
6 -8 20 -8 33 0 13 -4 23 -10 23 -5 0 -10 7 -10 15 0 8 -11 38 -24 67 -32 73
-39 92 -38 100 1 3 -5 11 -13 18 -7 6 -11 18 -8 26 3 8 0 14 -6 14 -6 0 -11 7
-11 16 0 9 -9 28 -20 44 -11 15 -17 30 -13 34 3 3 1 6 -6 6 -7 0 -9 5 -6 10 3
6 1 10 -5 10 -6 0 -9 4 -6 9 3 5 -1 14 -9 21 -8 7 -12 16 -9 21 3 5 0 9 -6 9
-6 0 -8 5 -5 10 3 6 1 10 -6 10 -7 0 -9 3 -6 7 4 3 0 15 -10 25 -9 10 -13 18
-9 18 4 0 2 6 -4 13 -17 20 -140 230 -140 239 0 4 -4 8 -10 8 -5 0 -10 6 -10
14 0 8 -3 16 -7 18 -12 5 -53 66 -53 78 0 5 -4 10 -8 10 -5 0 -18 17 -30 38
-12 20 -32 51 -46 67 -14 17 -33 41 -43 54 -10 13 -26 32 -35 42 -10 11 -18
22 -18 25 0 3 -6 11 -12 19 -7 7 -29 32 -48 55 -125 150 -374 399 -505 505
-21 17 -47 39 -59 50 -12 11 -41 33 -64 49 -23 16 -42 33 -42 37 0 5 -4 9 -10
9 -5 0 -18 6 -27 14 -41 34 -114 86 -119 86 -3 0 -20 11 -38 25 -18 14 -36 25
-40 25 -4 0 -14 6 -21 13 -26 23 -40 32 -77 52 -21 11 -38 23 -38 27 0 5 -3 7
-7 6 -10 -3 -87 43 -91 54 -2 5 -8 6 -13 2 -5 -3 -21 4 -35 15 -15 12 -33 21
-40 21 -8 0 -14 5 -14 12 0 6 -3 9 -6 5 -4 -3 -13 1 -21 9 -8 8 -18 12 -23 9
-4 -3 -13 2 -20 10 -7 8 -21 15 -31 15 -11 0 -19 5 -19 11 0 5 -4 7 -10 4 -5
-3 -10 -1 -10 6 0 7 -3 10 -6 6 -3 -3 -21 3 -40 14 -19 10 -41 19 -49 19 -8 0
-15 5 -15 10 0 6 -8 10 -18 10 -10 0 -27 7 -38 15 -12 8 -24 11 -28 8 -3 -3
-6 -1 -6 6 0 7 -4 10 -9 6 -5 -3 -12 -1 -16 5 -3 5 -17 10 -31 10 -14 0 -22 4
-19 10 3 6 -1 7 -9 4 -9 -3 -16 -1 -16 6 0 6 -4 9 -8 6 -5 -3 -19 1 -33 7 -13
7 -44 19 -69 27 -25 7 -49 16 -55 19 -5 3 -14 6 -20 6 -13 1 -45 14 -69 26
-14 8 -16 8 -10 -3 6 -11 5 -11 -8 0 -9 7 -29 15 -44 18 -16 3 -35 11 -43 17
-12 10 -13 9 -6 -3 7 -12 6 -13 -6 -4 -17 14 -149 45 -149 36 0 -4 -4 -2 -8 4
-4 7 -25 14 -47 18 -54 8 -97 16 -117 22 -27 8 -60 13 -95 16 -18 1 -33 5 -33
8 0 3 -21 5 -48 5 -26 0 -52 3 -59 8 -7 5 -17 6 -22 3 -5 -4 -13 -2 -16 4 -5
8 -11 7 -21 -1 -8 -6 -14 -8 -14 -3 0 10 -49 15 -142 18 -32 0 -58 4 -58 8 0
11 -512 8 -533 -4 -14 -7 -17 -7 -13 1 8 13 8 13 -19 2z m-805 -1482 c0 -5 7
-9 15 -9 8 0 15 -4 15 -9 0 -5 6 -16 13 -23 7 -7 31 -37 53 -65 253 -321 566
-562 899 -691 86 -34 247 -81 292 -86 15 -2 28 -5 28 -6 0 -1 7 -3 15 -5 8 -1
35 -8 60 -15 25 -7 59 -14 75 -17 17 -2 37 -7 45 -10 8 -3 42 -12 75 -19 77
-18 85 -20 130 -33 21 -6 42 -8 47 -5 4 3 8 0 8 -5 0 -6 8 -11 18 -11 17 0
139 -59 169 -82 9 -7 41 -37 71 -65 30 -29 58 -53 62 -53 4 0 18 16 31 35 13
19 27 35 32 35 4 0 7 7 7 15 0 8 3 15 8 15 4 0 36 37 72 82 36 44 79 97 95
117 17 20 47 56 65 81 19 25 48 56 64 69 15 14 34 30 40 37 20 19 117 78 162
98 150 65 328 72 499 18 43 -13 146 -67 171 -88 12 -11 36 -30 54 -44 63 -48
156 -184 228 -330 9 -19 20 -37 23 -40 3 -3 21 -34 40 -70 18 -36 36 -67 39
-70 3 -3 16 -25 28 -50 13 -25 41 -76 61 -115 41 -77 45 -123 14 -158 -29 -31
-52 -39 -132 -43 -199 -10 -231 -14 -283 -38 -51 -23 -116 -76 -132 -106 -4
-8 -18 -35 -31 -60 -22 -43 -23 -52 -20 -225 2 -99 7 -254 11 -345 16 -320 9
-455 -30 -620 -23 -99 -61 -208 -105 -304 -22 -48 -40 -89 -40 -91 0 -3 -5
-11 -11 -18 -6 -6 -33 -48 -62 -92 -74 -115 -108 -157 -233 -281 -105 -104
-240 -210 -317 -250 -18 -9 -35 -20 -38 -23 -8 -11 -192 -97 -235 -111 -22 -7
-46 -18 -54 -24 -8 -6 -17 -10 -20 -9 -6 3 -77 -14 -101 -24 -8 -3 -24 -7 -35
-9 -11 -1 -31 -5 -45 -9 -84 -21 -191 -32 -385 -40 -280 -12 -335 -14 -487
-20 -87 -4 -166 -8 -175 -9 -12 -2 -25 -23 -39 -62 -11 -32 -26 -72 -33 -89
-7 -16 -19 -48 -26 -70 -68 -196 -289 -767 -312 -804 -49 -80 -163 -142 -263
-145 -36 0 -114 15 -138 28 -15 8 -43 21 -62 29 -152 66 -452 199 -532 237
-144 68 -214 233 -164 390 17 55 24 66 121 184 27 34 53 66 57 71 4 6 25 31
45 56 75 91 103 126 195 240 100 124 242 301 270 334 52 64 212 261 263 325
33 41 68 84 77 94 10 11 16 21 14 23 -2 2 -46 6 -97 8 -52 3 -105 7 -119 9
-52 9 -96 17 -110 21 -8 2 -31 7 -50 10 -19 3 -40 11 -47 17 -7 6 -13 8 -13 5
0 -10 -137 41 -234 87 -205 96 -392 242 -538 421 -66 80 -66 80 -117 155 -73
108 -126 185 -131 190 -3 3 -9 13 -15 22 -16 28 -148 220 -160 232 -5 6 -16
23 -24 38 -8 15 -23 37 -33 48 -10 11 -15 20 -11 20 4 0 3 4 -3 8 -6 4 -55 72
-109 152 -54 80 -114 167 -133 193 -65 91 -70 147 -18 196 27 26 41 28 243 36
87 3 196 8 243 10 47 2 157 7 245 10 211 8 370 19 435 31 14 2 44 7 66 10 23
2 53 7 65 10 13 3 33 7 44 8 19 4 56 11 100 20 38 8 189 48 195 51 4 2 -4 39
-18 82 -29 92 -33 107 -33 110 0 2 -5 17 -10 35 -18 63 -48 208 -58 285 -21
153 -24 194 -36 493 -3 74 -8 189 -10 254 -6 131 3 176 39 199 36 24 116 28
116 6z"/>
<path d="M3975 7105 c13 -258 16 -302 19 -321 2 -12 7 -45 11 -74 4 -29 9 -62
11 -74 2 -12 7 -37 10 -56 19 -103 90 -350 101 -350 3 0 42 11 87 24 164 50
303 62 460 40 173 -24 273 -58 451 -157 33 -18 101 -55 150 -82 50 -26 110
-59 134 -73 24 -13 70 -38 103 -55 l59 -32 27 32 c22 26 99 120 149 183 6 8
30 37 52 65 23 27 41 54 41 58 0 15 -129 137 -145 137 -8 0 -15 5 -15 10 0 6
-8 10 -18 10 -10 0 -22 3 -26 7 -3 4 -12 8 -19 9 -7 2 -68 17 -137 34 -69 18
-132 33 -140 35 -8 2 -55 13 -105 25 -49 12 -97 23 -105 25 -107 23 -245 65
-341 103 -73 29 -259 121 -269 133 -3 3 -25 16 -50 30 -24 13 -52 32 -62 42
-10 9 -22 17 -26 17 -5 0 -17 8 -28 18 -10 10 -36 29 -56 43 -60 41 -152 121
-275 242 l-53 51 5 -99z"/>
<path d="M6781 6828 c-35 -5 -76 -15 -92 -24 -16 -8 -29 -12 -29 -9 0 8 -93
-47 -127 -75 -16 -14 -97 -109 -179 -210 -82 -102 -156 -194 -166 -205 -65
-78 -137 -167 -158 -195 -14 -18 -32 -40 -41 -49 -28 -28 -221 -272 -217 -275
1 -2 37 -21 79 -44 41 -23 85 -49 96 -60 30 -25 39 -82 19 -120 -35 -68 -91
-79 -177 -34 -110 58 -214 115 -226 125 -7 5 -13 6 -13 1 0 -5 -4 -4 -8 2 -4
6 -45 31 -92 55 -47 24 -87 46 -90 49 -3 3 -23 15 -45 26 -22 12 -80 43 -130
69 -49 26 -94 51 -100 55 -5 4 -53 30 -105 57 -105 56 -223 99 -303 110 -67 9
-229 8 -287 -1 -43 -8 -233 -67 -275 -86 -49 -22 -354 -103 -440 -117 -16 -2
-40 -6 -52 -9 -54 -10 -70 -13 -113 -19 -25 -3 -65 -8 -90 -10 -25 -2 -65 -6
-90 -9 -25 -3 -103 -8 -175 -11 -71 -3 -170 -8 -220 -10 -49 -3 -155 -7 -235
-11 -80 -3 -147 -7 -149 -10 -2 -2 3 -12 11 -21 8 -10 60 -83 114 -163 54 -80
101 -147 106 -148 4 -2 6 -8 2 -13 -3 -5 -1 -9 3 -9 5 0 19 -17 32 -39 23 -37
31 -41 190 -96 91 -31 172 -57 179 -58 6 0 12 -4 12 -9 0 -5 4 -7 8 -4 5 3 26
-1 48 -9 158 -54 442 -72 639 -39 92 15 120 21 184 40 31 9 61 17 66 19 6 1
24 7 40 14 114 45 173 73 263 128 118 71 142 79 186 56 54 -28 74 -77 55 -132
-17 -49 -218 -178 -354 -227 -123 -46 -157 -57 -225 -75 -41 -11 -91 -22 -110
-25 -19 -3 -42 -7 -50 -9 -61 -17 -389 -25 -500 -12 -57 7 -143 22 -195 36
-22 5 -56 14 -75 19 -20 5 -45 14 -58 21 -12 6 -22 9 -22 6 0 -3 -9 -1 -20 5
-23 12 -27 -2 -5 -20 8 -7 15 -16 15 -21 0 -31 206 -266 301 -342 96 -77 322
-207 362 -207 7 0 17 -4 23 -9 10 -10 118 -41 194 -56 14 -3 36 -7 49 -10 44
-8 166 -19 226 -19 76 0 294 12 320 18 11 2 40 7 65 11 96 16 178 39 285 82
93 37 261 132 283 161 6 9 12 13 12 9 0 -9 56 39 139 120 35 34 79 67 97 73
44 15 96 -1 114 -35 7 -14 16 -25 20 -25 10 0 4 -64 -10 -90 -15 -29 -104
-118 -175 -175 -28 -22 -52 -43 -55 -46 -3 -4 -39 -28 -80 -55 -126 -82 -320
-171 -435 -200 -66 -17 -253 -52 -287 -54 -4 0 -53 -57 -109 -127 -56 -71
-108 -133 -115 -139 -8 -6 -14 -16 -14 -22 0 -6 -3 -12 -7 -14 -5 -1 -28 -28
-53 -58 -25 -30 -48 -56 -52 -58 -5 -2 -8 -8 -8 -14 0 -6 -6 -16 -13 -22 -8
-6 -42 -47 -78 -91 -35 -44 -66 -82 -69 -85 -3 -3 -21 -25 -40 -50 -19 -25
-37 -47 -40 -50 -3 -3 -36 -43 -73 -90 -38 -47 -76 -94 -85 -105 -9 -11 -35
-42 -56 -70 -49 -62 -51 -64 -77 -95 -12 -14 -47 -56 -78 -95 -69 -87 -83
-104 -96 -119 -74 -83 -92 -132 -68 -183 16 -34 33 -44 193 -113 41 -18 104
-46 140 -62 162 -75 314 -138 339 -143 19 -3 39 3 62 18 31 21 44 50 175 402
79 209 143 380 143 380 0 0 3 9 7 20 4 11 13 35 20 53 16 39 10 40 -64 5 -87
-41 -196 -156 -253 -268 -49 -94 -80 -123 -131 -120 -38 3 -78 31 -93 68 -14
35 -9 97 8 97 6 0 7 3 4 6 -16 17 95 189 176 272 61 63 224 169 272 176 6 1
15 4 20 7 17 11 88 32 114 34 14 2 42 6 61 9 33 5 157 12 410 21 63 2 174 7
245 10 72 3 173 8 225 10 52 3 115 7 140 10 25 4 57 8 70 9 81 10 271 62 330
91 14 6 57 27 95 45 39 19 72 36 75 39 3 4 18 12 33 19 15 6 33 16 40 22 7 5
52 39 100 75 49 36 118 97 155 134 72 74 79 81 135 156 20 28 40 55 45 60 4 6
19 30 32 55 14 25 28 47 31 50 5 5 31 59 67 140 21 48 59 166 66 206 3 13 7
32 10 42 21 75 27 313 13 597 -18 368 -18 414 -6 477 6 35 18 75 26 90 7 15
13 29 12 30 -1 2 8 23 21 47 19 38 122 151 171 187 19 14 111 58 124 59 6 0
15 3 20 7 12 7 119 22 148 20 9 0 17 2 17 5 0 5 -44 87 -126 233 -23 41 -55
100 -70 130 -16 30 -54 80 -85 111 -53 55 -158 118 -203 123 -12 1 -28 6 -35
10 -7 4 -15 6 -17 3 -3 -2 -19 -2 -37 2 -18 4 -61 3 -96 -1z m229 -208 c3 -3
17 -13 31 -22 36 -23 52 -85 31 -124 -24 -46 -41 -57 -93 -62 -44 -4 -51 -2
-78 27 -16 17 -31 43 -34 58 -7 38 18 95 51 113 26 15 82 21 92 10z m-413
-1540 c51 -31 56 -49 50 -184 -7 -148 -12 -176 -48 -293 -48 -157 -140 -328
-225 -420 -14 -15 -36 -39 -48 -53 -35 -41 -127 -120 -186 -160 -172 -117
-362 -186 -568 -205 -75 -7 -124 6 -146 40 -49 75 -8 160 84 171 81 9 116 13
138 19 12 3 32 7 45 10 73 16 117 30 117 39 0 5 3 7 6 3 5 -5 163 69 174 83 3
3 18 14 35 24 82 53 255 238 255 274 0 7 4 12 8 12 9 0 52 81 52 98 0 6 4 12
10 14 5 2 11 12 13 23 2 11 9 32 15 46 33 81 55 205 56 324 2 129 74 190 163
135z"/>
</g>
</svg>
